<?xml version="1.0" encoding="utf-8"?>
<!-- Generator: Adobe Illustrator 25.2.1, SVG Export Plug-In . SVG Version: 6.00 Build 0)  -->
<svg version="1.1" id="Capa_1" xmlns="http://www.w3.org/2000/svg" xmlns:xlink="http://www.w3.org/1999/xlink" x="0px" y="0px"
	 viewBox="0 0 1280 568" style="enable-background:new 0 0 1280 568;" xml:space="preserve">
<style type="text/css">
	.st0{clip-path:url(#SVGID_2_);}
	.st1{fill:#EBCBDE;}
	.st2{fill:#C4DCFD;}
</style>
<g>
	<defs>
		<rect id="SVGID_1_" x="-671.5" y="423.4" width="1280" height="568"/>
	</defs>
	<clipPath id="SVGID_2_">
		<use xlink:href="#SVGID_1_"  style="overflow:visible;"/>
	</clipPath>
	<g class="st0">
		<path class="st1" d="M1353.2,416.8c-167.6-54-503-65.1-609-32c-140.3,43.8-635.4-93.3-763,31.9C-71.2,468.1-172.6,84.9,178,285.7
			c92.5,53,736.6-86.6,736-3.9c-0.4,64.2,504.6-91.9,528.1-5.6C1462.6,351.7,1456.3,450,1353.2,416.8z"/>
		<path class="st2" d="M1353.2,359.8c-167.6-54-503-65.1-609-32c-140.3,43.8-635.4-93.3-763,31.9C-71.2,411-172.6,27.9,178,228.6
			c92.5,53,736.6-86.6,736-3.9c-0.4,64.2,504.6-91.9,528.1-5.6C1462.6,294.6,1456.3,393,1353.2,359.8z"/>
	</g>
</g>
<g>
	<path class="st1" d="M1304.3,364.1c-51-2.8-88.8-13.7-93.4-15c-77.6-22.1-206.4-3.2-206.4-3.2c-155.2,22.8-200.4,39.7-243.9,18.3
		c-6.1-3-21.9-11.5-44.8-15.1c-37.8-5.9-67.3,5.8-82.3,10.7c-74.4,24.3-105-16.4-228.9-9.7c-57.8,3.1-43.1,11.5-104.7,15.8
		c-134.9,9.4-156-34.2-253.4-14.7c-50.2,10.1-76.8,28.1-114.1,12.8c-30.4-12.5-59.3-43.5-52.6-61.1c12.3-32,74.7-54.4,249.4-4.4
		c92.5,26.5,736.6-43.3,736-1.9c-0.4,32.1,504.6-46,532.4,49.2C1404.9,370.9,1342,366.2,1304.3,364.1z"/>
	<path class="st2" d="M1319.2,335.6c-167.6-22.6-503-27.3-609-13.4c-140.3,18.4-635.4-39.1-763,13.4c-12.8,5.3-58.1-31.4-54-47.4
		c5.3-20.2,89.3-21.8,150-13.9c58.7,7.6,77.7,21.8,115.5,9.8c18.6-5.9,33-15.4,58.8-15.1c26.8,0.3,46.1,10.9,54.5,15
		c35.8,17.4,73.8,14.3,161.5,5.3c159.6-16.4,174.3-20.6,216.8-23.6c67.6-4.8,69.9,3,229.8,13.4c227.2,14.8,340.7,22.2,393.9,7
		c42.5-12.1,109-37.2,134.2-9.4C1417.4,286.9,1424.8,349.8,1319.2,335.6z"/>
	<path class="st1" d="M1212,273.2"/>
	<path class="st2" d="M586.4,373.7"/>
</g>
</svg>
