<?xml version="1.0" encoding="utf-8"?>
<!-- Generator: Adobe Illustrator 25.2.1, SVG Export Plug-In . SVG Version: 6.00 Build 0)  -->
<svg version="1.1" id="Capa_1" xmlns="http://www.w3.org/2000/svg" xmlns:xlink="http://www.w3.org/1999/xlink" x="0px" y="0px"
	 viewBox="0 0 1440 320" style="enable-background:new 0 0 1440 320;" xml:space="preserve">
<style type="text/css">
	.st0{fill:#C4DCFD;}
</style>
<path class="st0" d="M8.9,70.1c4.6-10.3,19.1-42.7,38.5-42.8c26.5-0.1,40.5,60.6,57,57c16.4-3.5,5.8-55.4,31.4-71.3
	c24.2-15,49.1,27.5,102.7,22.8c38.3-3.3,49.6-24.8,82.7-17.1c21.8,5.1,24.6,16.2,49.9,20c17.5,2.6,30.9-0.8,55.6-7.1
	c37.3-9.6,42.7-17.1,67-22.8c31-7.3,56.5-3.1,75.6,0c62.5,10,66.8,36,101.2,31.4c40.7-5.5,49.4-43.8,84.1-40.1
	c23.6,2.5,22.5,20.6,49.9,30.1c41.3,14.4,61.2-19.7,126.9-20c26.9-0.1,49.3,5.5,78.4,12.8c49.7,12.5,56.7,22.8,81.3,20
	c39.8-4.7,45.9-34.9,74.1-32.8c39,2.9,43.7,61.6,79.8,67c41.7,6.3,63.1-74.4,114.1-77.2c32.1-1.8,60.5,27.5,81,55.8
	c0,45.1,0,90.3,0,135.4c0,42.9,0,85.8,0,128.7h-15c-15,0-45,0-75,0s-60,0-90,0s-60,0-90,0s-60,0-90,0s-60,0-90,0s-60,0-90,0
	s-60,0-90,0s-60,0-90,0s-60,0-90,0s-60,0-90,0s-60,0-90,0s-60,0-90,0s-60,0-90,0s-60,0-90,0s-60,0-90,0s-60,0-75,0H0
	C3.4,265.2-8.8,109.8,8.9,70.1z"/>
<path class="st0" d="M867.2,818.6"/>
<path class="st0" d="M921.3,795.8"/>
<path class="st0" d="M292.6,502.1"/>
<path class="st0" d="M781.6,703.1"/>
</svg>
