<?xml version="1.0" encoding="utf-8"?>
<!-- Generator: Adobe Illustrator 25.2.1, SVG Export Plug-In . SVG Version: 6.00 Build 0)  -->
<svg version="1.1" id="Capa_1" xmlns="http://www.w3.org/2000/svg" xmlns:xlink="http://www.w3.org/1999/xlink" x="0px" y="0px"
	 viewBox="0 0 1440 320" style="enable-background:new 0 0 1440 320;" xml:space="preserve">
<style type="text/css">
	.st0{fill:#C4DCFD;}
</style>
<path class="st0" d="M8.9,70.1c5.2-11.8,17.4-39.8,38.5-42.8C64.9,24.8,73.8,41.6,93,39c20.9-2.8,21.2-24.2,42-34
	c31.8-14.9,51.8,25.3,103,22c41.3-2.7,57.9-30.8,89-19c10.7,4.1,14.4,9.5,32,15c17.3,5.4,31.6,5.7,43.9,5.9
	c24.9,0.5,43.6-3.7,48.9-4.9c23.6-5.5,21.7-10.4,41.9-15.2c31-7.3,56.5-3.1,75.6,0c12.3,2,24.8,6.2,38.5,10.2c16.7,5,27,8.7,43.2,10
	c4.5,0.3,11.6,0.9,20,0c38.7-4.1,52.7-33.2,83.6-28.9c1.6,0.2,4.9,1.2,11.3,3C794.3,11.4,812,20.9,819,24
	c32.2,14.2,49.7-14,112.4-13.8c23.7,0.1,48,5.2,78.4,12.8c49.7,12.5,56.7,22.8,81.3,20c39.8-4.7,45.9-34.9,74.1-32.8
	c39,2.9,43.7,61.6,79.8,67c41.7,6.3,63.1-74.4,114.1-77.2c32.1-1.8,60.5,27.5,81,55.8c0,45.1,0,90.3,0,135.4c0,42.9,0,85.8,0,128.7
	h-15c-15,0-45,0-75,0s-60,0-90,0s-60,0-90,0s-60,0-90,0s-60,0-90,0s-60,0-90,0s-60,0-90,0s-60,0-90,0s-60,0-90,0s-60,0-90,0
	s-60,0-90,0s-60,0-90,0s-60,0-90,0s-60,0-90,0s-60,0-90,0s-60,0-75,0H0C3.4,265.2-8.8,109.8,8.9,70.1z"/>
<path class="st0" d="M867.2,818.6"/>
<path class="st0" d="M921.3,795.8"/>
<path class="st0" d="M292.6,502.1"/>
<path class="st0" d="M781.6,703.1"/>
</svg>
